<svg width="25" height="24" viewBox="0 0 25 24" fill="none" xmlns="http://www.w3.org/2000/svg">
<path d="M9.73509 1.822C9.89367 1.77549 10.0657 1.75 10.25 1.75C11.3461 1.75 11.9956 2.65054 11.9956 3.5V7.17294C12.2877 7.07156 12.6264 7.00057 13.0035 7.00057C14.4015 7.00057 15.5 8.03158 15.5 9.5C15.5 9.74196 15.3833 9.96906 15.1865 10.1099L13.4693 11.3389L12.5146 12.1713C11.8759 12.7283 11.3021 13.3556 10.8043 14.0414L10.2059 14.8656C9.6885 15.5782 8.86113 16 7.9805 16H6.34181C5.41074 16 4.518 15.527 4.03678 14.6887C3.73471 14.1624 3.36076 13.471 3.06013 12.7866C2.77413 12.1356 2.5 11.3739 2.5 10.75V4.75C2.5 3.89589 3.15814 3 4.25 3C4.35996 3 4.46553 3.00909 4.56646 3.0263C4.75877 2.34453 5.35934 1.75 6.25 1.75C6.4323 1.75 6.60446 1.77568 6.76445 1.82275C7.05308 1.35091 7.56681 1 8.25 1C8.93282 1 9.44637 1.35053 9.73509 1.822ZM8.06917 2.57039C8.02604 2.61722 8 2.68471 8 2.74838V3.41364C8.00102 3.44679 8.00102 3.48005 8 3.51331V7.25002C8 7.66423 7.66421 8.00002 7.25 8.00002C6.83579 8.00002 6.5 7.66423 6.5 7.25002V3.44838C6.49628 3.41157 6.47882 3.36521 6.44151 3.32515C6.40403 3.28491 6.3457 3.25 6.25 3.25C6.15469 3.25 6.10326 3.28301 6.06924 3.32003C6.02661 3.36641 6 3.43431 6 3.5002V7.75057C6 8.16478 5.66421 8.50057 5.25 8.50057C4.83579 8.50057 4.5 8.16478 4.5 7.75057V4.75C4.5 4.68497 4.47358 4.61706 4.43055 4.57029C4.39604 4.53278 4.34437 4.5 4.25 4.5C4.15563 4.5 4.10396 4.53278 4.06945 4.57029C4.02642 4.61706 4 4.68497 4 4.75V10.75C4 11.0296 4.14872 11.5352 4.43345 12.1833C4.70355 12.7982 5.04823 13.4376 5.33769 13.9419C5.53399 14.2839 5.91193 14.5 6.34181 14.5H7.9805C8.38079 14.5 8.75686 14.3083 8.99203 13.9844L9.59042 13.1601C10.1547 12.3829 10.8049 11.672 11.5288 11.0408L12.5106 10.1847C12.5287 10.169 12.5475 10.1541 12.567 10.1401L13.9505 9.14992C13.8257 8.74188 13.4744 8.50057 13.0035 8.50057C12.3666 8.50057 11.914 8.90045 11.7617 9.03496C11.7497 9.0455 11.7397 9.05442 11.7315 9.06138C11.5087 9.25076 11.1963 9.29345 10.9309 9.17076C10.6655 9.04807 10.4956 8.78236 10.4956 8.49V3.5C10.4956 3.43257 10.4687 3.36436 10.4268 3.31855C10.3937 3.28235 10.3439 3.25 10.25 3.25C10.1547 3.25 10.1031 3.28302 10.0691 3.31991C10.0267 3.36593 10 3.43351 10 3.5V7.25002C10 7.66423 9.66421 8.00002 9.25 8.00002C8.83579 8.00002 8.5 7.66423 8.5 7.25002V2.74838C8.5 2.68471 8.47396 2.61722 8.43083 2.57039C8.39623 2.53282 8.34441 2.5 8.25 2.5C8.15559 2.5 8.10377 2.53282 8.06917 2.57039ZM13.5 15C14.0523 15 14.5 14.5523 14.5 14C14.5 13.4477 14.0523 13 13.5 13C12.9477 13 12.5 13.4477 12.5 14C12.5 14.5523 12.9477 15 13.5 15ZM17.5 15C18.0523 15 18.5 14.5523 18.5 14C18.5 13.4477 18.0523 13 17.5 13C16.9477 13 16.5 13.4477 16.5 14C16.5 14.5523 16.9477 15 17.5 15ZM15.4999 22C12.2986 22 9.5992 19.851 8.76562 16.9169C9.26712 16.8095 9.74008 16.6005 10.1556 16.3047C10.7414 18.7124 12.9119 20.5 15.4999 20.5C18.5375 20.5 20.9999 18.0375 20.9999 15C20.9999 12.3031 19.0589 10.0595 16.4976 9.59022C16.4991 9.56025 16.4999 9.53015 16.4999 9.49996C16.4999 8.96676 16.3929 8.473 16.2002 8.03455C19.7374 8.38587 22.4999 11.3703 22.4999 15C22.4999 18.8659 19.3659 22 15.4999 22ZM13.6977 16.7327C13.4105 16.4342 12.9357 16.425 12.6372 16.7121C12.3387 16.9993 12.3295 17.474 12.6166 17.7726C13.3434 18.5282 14.3671 18.9999 15.4997 18.9999C16.6323 18.9999 17.656 18.5282 18.3828 17.7726C18.67 17.474 18.6608 16.9993 18.3622 16.7121C18.0637 16.425 17.5889 16.4342 17.3018 16.7327C16.846 17.2065 16.2078 17.4999 15.4997 17.4999C14.7917 17.4999 14.1534 17.2065 13.6977 16.7327Z" fill="#F6B93B"/>
</svg>
